<mxfile host="app.diagrams.net" agent="Mozilla/5.0 (Windows NT 10.0; Win64; x64) AppleWebKit/537.36 (KHTML, like Gecko) Chrome/135.0.0.0 Safari/537.36" version="26.2.13">
  <diagram name="Page-1" id="T_rQbApwSiE6f1ID8Icu">
    <mxGraphModel dx="788" dy="451" grid="1" gridSize="10" guides="1" tooltips="1" connect="1" arrows="1" fold="1" page="1" pageScale="1" pageWidth="850" pageHeight="1100" math="0" shadow="0">
      <root>
        <mxCell id="0" />
        <mxCell id="1" parent="0" />
        <mxCell id="Az65Nq3NN5rDX_P3dx2P-1" value="" style="rounded=0;whiteSpace=wrap;html=1;" vertex="1" parent="1">
          <mxGeometry x="70" y="90" width="610" height="310" as="geometry" />
        </mxCell>
        <mxCell id="Az65Nq3NN5rDX_P3dx2P-2" value="" style="rounded=0;whiteSpace=wrap;html=1;" vertex="1" parent="1">
          <mxGeometry x="110" y="155" width="190" height="180" as="geometry" />
        </mxCell>
        <mxCell id="Az65Nq3NN5rDX_P3dx2P-3" value="" style="rounded=0;whiteSpace=wrap;html=1;" vertex="1" parent="1">
          <mxGeometry x="460" y="155" width="190" height="180" as="geometry" />
        </mxCell>
        <mxCell id="Az65Nq3NN5rDX_P3dx2P-4" value="RT" style="swimlane;fontStyle=0;childLayout=stackLayout;horizontal=1;startSize=30;horizontalStack=0;resizeParent=1;resizeParentMax=0;resizeLast=0;collapsible=1;marginBottom=0;whiteSpace=wrap;html=1;" vertex="1" parent="1">
          <mxGeometry x="300" y="160" width="70" height="60" as="geometry" />
        </mxCell>
        <mxCell id="Az65Nq3NN5rDX_P3dx2P-5" value="Item 1" style="text;strokeColor=none;fillColor=none;align=left;verticalAlign=middle;spacingLeft=4;spacingRight=4;overflow=hidden;points=[[0,0.5],[1,0.5]];portConstraint=eastwest;rotatable=0;whiteSpace=wrap;html=1;" vertex="1" parent="Az65Nq3NN5rDX_P3dx2P-4">
          <mxGeometry y="30" width="70" height="30" as="geometry" />
        </mxCell>
        <mxCell id="Az65Nq3NN5rDX_P3dx2P-8" value="RT" style="swimlane;fontStyle=0;childLayout=stackLayout;horizontal=1;startSize=30;horizontalStack=0;resizeParent=1;resizeParentMax=0;resizeLast=0;collapsible=1;marginBottom=0;whiteSpace=wrap;html=1;" vertex="1" parent="1">
          <mxGeometry x="390" y="280" width="70" height="60" as="geometry" />
        </mxCell>
        <mxCell id="Az65Nq3NN5rDX_P3dx2P-9" value="Item 1" style="text;strokeColor=none;fillColor=none;align=left;verticalAlign=middle;spacingLeft=4;spacingRight=4;overflow=hidden;points=[[0,0.5],[1,0.5]];portConstraint=eastwest;rotatable=0;whiteSpace=wrap;html=1;" vertex="1" parent="Az65Nq3NN5rDX_P3dx2P-8">
          <mxGeometry y="30" width="70" height="30" as="geometry" />
        </mxCell>
        <mxCell id="Az65Nq3NN5rDX_P3dx2P-10" value="NAT GW" style="shape=process;whiteSpace=wrap;html=1;backgroundOutline=1;" vertex="1" parent="1">
          <mxGeometry x="300" y="230" width="70" height="60" as="geometry" />
        </mxCell>
        <mxCell id="Az65Nq3NN5rDX_P3dx2P-11" value="Public EC2" style="rounded=0;whiteSpace=wrap;html=1;" vertex="1" parent="1">
          <mxGeometry x="150" y="215" width="120" height="60" as="geometry" />
        </mxCell>
        <mxCell id="Az65Nq3NN5rDX_P3dx2P-12" value="Private EC2" style="rounded=0;whiteSpace=wrap;html=1;" vertex="1" parent="1">
          <mxGeometry x="500" y="215" width="120" height="60" as="geometry" />
        </mxCell>
        <mxCell id="Az65Nq3NN5rDX_P3dx2P-13" value="IGW" style="rounded=1;whiteSpace=wrap;html=1;" vertex="1" parent="1">
          <mxGeometry x="315" y="90" width="120" height="60" as="geometry" />
        </mxCell>
        <mxCell id="Az65Nq3NN5rDX_P3dx2P-14" value="Public subnet" style="text;html=1;align=center;verticalAlign=middle;whiteSpace=wrap;rounded=0;" vertex="1" parent="1">
          <mxGeometry x="175" y="160" width="60" height="30" as="geometry" />
        </mxCell>
        <mxCell id="Az65Nq3NN5rDX_P3dx2P-15" value="Private subnet" style="text;html=1;align=center;verticalAlign=middle;whiteSpace=wrap;rounded=0;" vertex="1" parent="1">
          <mxGeometry x="525" y="155" width="60" height="30" as="geometry" />
        </mxCell>
        <mxCell id="Az65Nq3NN5rDX_P3dx2P-16" value="VPC" style="text;html=1;align=center;verticalAlign=middle;whiteSpace=wrap;rounded=0;" vertex="1" parent="1">
          <mxGeometry x="350" y="370" width="60" height="30" as="geometry" />
        </mxCell>
      </root>
    </mxGraphModel>
  </diagram>
</mxfile>
